<?xml version='1.0' encoding='utf-8'?>
<mxfile host="app.diagrams.net"><diagram name="Bệnh Viện Số"><mxGraphModel><root><mxCell id="0" /><mxCell id="1" parent="0" /><mxCell id="e020bd8a3a" value="Ứng dụng Bệnh Viện Số" style="rounded=1;fillColor=#dae8fc;" vertex="1" parent="1" /><mxGeometry x="80" y="0" width="200" height="60" as_="geometry" /><mxCell id="a1f3d1d51d" value="1. Quản lý tài khoản" style="rounded=1;fillColor=#fff2cc;" vertex="1" parent="1" /><mxGeometry x="80" y="100" width="220" height="50" as_="geometry" /><mxCell id="9c159610f5" style="edgeStyle=orthogonalEdgeStyle;" edge="1" source="e020bd8a3a" target="a1f3d1d51d" parent="1" /><mxGeometry relative="1" as_="geometry" /><mxCell id="762d161313" value="1.1 Quản lý thông tin cá nhân (BN, BS)" style="rounded=1;fillColor=#e1d5e7;" vertex="1" parent="1" /><mxGeometry x="300" y="100" width="300" height="40" as_="geometry" /><mxCell id="6f957e7fb2" style="edgeStyle=orthogonalEdgeStyle;" edge="1" source="a1f3d1d51d" target="762d161313" parent="1" /><mxGeometry relative="1" as_="geometry" /><mxCell id="a7f14dd0f6" value="1.2 Đổi mật khẩu (BN, BS)" style="rounded=1;fillColor=#e1d5e7;" vertex="1" parent="1" /><mxGeometry x="300" y="160" width="300" height="40" as_="geometry" /><mxCell id="e132d3c898" style="edgeStyle=orthogonalEdgeStyle;" edge="1" source="a1f3d1d51d" target="a7f14dd0f6" parent="1" /><mxGeometry relative="1" as_="geometry" /><mxCell id="cbe402c1b2" value="1.3 Liên kết bảo hiểm y tế (BN)" style="rounded=1;fillColor=#e1d5e7;" vertex="1" parent="1" /><mxGeometry x="300" y="220" width="300" height="40" as_="geometry" /><mxCell id="81a6ce4523" style="edgeStyle=orthogonalEdgeStyle;" edge="1" source="a1f3d1d51d" target="cbe402c1b2" parent="1" /><mxGeometry relative="1" as_="geometry" /><mxCell id="fd704d3e99" value="1.4 Đăng nhập (BN, BS)" style="rounded=1;fillColor=#e1d5e7;" vertex="1" parent="1" /><mxGeometry x="300" y="280" width="300" height="40" as_="geometry" /><mxCell id="b6597d8bb8" style="edgeStyle=orthogonalEdgeStyle;" edge="1" source="a1f3d1d51d" target="fd704d3e99" parent="1" /><mxGeometry relative="1" as_="geometry" /><mxCell id="b451cc1b6e" value="1.5 Đăng ký (BN, BS)" style="rounded=1;fillColor=#e1d5e7;" vertex="1" parent="1" /><mxGeometry x="300" y="340" width="300" height="40" as_="geometry" /><mxCell id="22c7861697" style="edgeStyle=orthogonalEdgeStyle;" edge="1" source="a1f3d1d51d" target="b451cc1b6e" parent="1" /><mxGeometry relative="1" as_="geometry" /><mxCell id="c553952923" value="1.6 Đăng xuất (BN, BS)" style="rounded=1;fillColor=#e1d5e7;" vertex="1" parent="1" /><mxGeometry x="300" y="400" width="300" height="40" as_="geometry" /><mxCell id="ba6cb75177" style="edgeStyle=orthogonalEdgeStyle;" edge="1" source="a1f3d1d51d" target="c553952923" parent="1" /><mxGeometry relative="1" as_="geometry" /><mxCell id="0f38eb7e64" value="1.7 Cập nhật thông tin chuyên môn (BS)" style="rounded=1;fillColor=#e1d5e7;" vertex="1" parent="1" /><mxGeometry x="300" y="460" width="300" height="40" as_="geometry" /><mxCell id="c22fd882e3" style="edgeStyle=orthogonalEdgeStyle;" edge="1" source="a1f3d1d51d" target="0f38eb7e64" parent="1" /><mxGeometry relative="1" as_="geometry" /><mxCell id="5a9aad88e8" value="2. Đặt lịch khám bệnh" style="rounded=1;fillColor=#fff2cc;" vertex="1" parent="1" /><mxGeometry x="80" y="300" width="220" height="50" as_="geometry" /><mxCell id="6f345ad00c" style="edgeStyle=orthogonalEdgeStyle;" edge="1" source="e020bd8a3a" target="5a9aad88e8" parent="1" /><mxGeometry relative="1" as_="geometry" /><mxCell id="d8f58cbd5d" value="2.1 Chọn chuyên khoa khám (BN)" style="rounded=1;fillColor=#e1d5e7;" vertex="1" parent="1" /><mxGeometry x="300" y="300" width="300" height="40" as_="geometry" /><mxCell id="2ba5a6a1ef" style="edgeStyle=orthogonalEdgeStyle;" edge="1" source="5a9aad88e8" target="d8f58cbd5d" parent="1" /><mxGeometry relative="1" as_="geometry" /><mxCell id="846b0b54fb" value="2.2 Chọn bác sĩ (BN)" style="rounded=1;fillColor=#e1d5e7;" vertex="1" parent="1" /><mxGeometry x="300" y="360" width="300" height="40" as_="geometry" /><mxCell id="32582977e9" style="edgeStyle=orthogonalEdgeStyle;" edge="1" source="5a9aad88e8" target="846b0b54fb" parent="1" /><mxGeometry relative="1" as_="geometry" /><mxCell id="d1885f3b5b" value="2.3 Chọn ngày và giờ khám (BN)" style="rounded=1;fillColor=#e1d5e7;" vertex="1" parent="1" /><mxGeometry x="300" y="420" width="300" height="40" as_="geometry" /><mxCell id="e436e59220" style="edgeStyle=orthogonalEdgeStyle;" edge="1" source="5a9aad88e8" target="d1885f3b5b" parent="1" /><mxGeometry relative="1" as_="geometry" /><mxCell id="010907e2e3" value="2.4 Xác nhận và lưu lịch hẹn (BN)" style="rounded=1;fillColor=#e1d5e7;" vertex="1" parent="1" /><mxGeometry x="300" y="480" width="300" height="40" as_="geometry" /><mxCell id="9210f93891" style="edgeStyle=orthogonalEdgeStyle;" edge="1" source="5a9aad88e8" target="010907e2e3" parent="1" /><mxGeometry relative="1" as_="geometry" /><mxCell id="e3c95df5cf" value="2.5 Nhận thông báo xác nhận (BN)" style="rounded=1;fillColor=#e1d5e7;" vertex="1" parent="1" /><mxGeometry x="300" y="540" width="300" height="40" as_="geometry" /><mxCell id="c40e53ea32" style="edgeStyle=orthogonalEdgeStyle;" edge="1" source="5a9aad88e8" target="e3c95df5cf" parent="1" /><mxGeometry relative="1" as_="geometry" /><mxCell id="3b03c904ab" value="3. Quản lý lịch hẹn" style="rounded=1;fillColor=#fff2cc;" vertex="1" parent="1" /><mxGeometry x="80" y="500" width="220" height="50" as_="geometry" /><mxCell id="94fd945c12" style="edgeStyle=orthogonalEdgeStyle;" edge="1" source="e020bd8a3a" target="3b03c904ab" parent="1" /><mxGeometry relative="1" as_="geometry" /><mxCell id="00fe379072" value="3.1 Xem lịch hẹn đã đặt (BN, BS)" style="rounded=1;fillColor=#e1d5e7;" vertex="1" parent="1" /><mxGeometry x="300" y="500" width="300" height="40" as_="geometry" /><mxCell id="a4e21f212e" style="edgeStyle=orthogonalEdgeStyle;" edge="1" source="3b03c904ab" target="00fe379072" parent="1" /><mxGeometry relative="1" as_="geometry" /><mxCell id="e1c2f9629a" value="3.2 Hủy/thay đổi lịch hẹn (BN, BS)" style="rounded=1;fillColor=#e1d5e7;" vertex="1" parent="1" /><mxGeometry x="300" y="560" width="300" height="40" as_="geometry" /><mxCell id="d1b3d7e56f" style="edgeStyle=orthogonalEdgeStyle;" edge="1" source="3b03c904ab" target="e1c2f9629a" parent="1" /><mxGeometry relative="1" as_="geometry" /><mxCell id="916a0997c0" value="3.3 Nhận nhắc lịch khám (BN, BS)" style="rounded=1;fillColor=#e1d5e7;" vertex="1" parent="1" /><mxGeometry x="300" y="620" width="300" height="40" as_="geometry" /><mxCell id="4ba2eb3c60" style="edgeStyle=orthogonalEdgeStyle;" edge="1" source="3b03c904ab" target="916a0997c0" parent="1" /><mxGeometry relative="1" as_="geometry" /><mxCell id="2bb76b053e" value="3.4 Xác nhận/từ chối lịch (BS)" style="rounded=1;fillColor=#e1d5e7;" vertex="1" parent="1" /><mxGeometry x="300" y="680" width="300" height="40" as_="geometry" /><mxCell id="08eb36d0f7" style="edgeStyle=orthogonalEdgeStyle;" edge="1" source="3b03c904ab" target="2bb76b053e" parent="1" /><mxGeometry relative="1" as_="geometry" /><mxCell id="c243c6ba81" value="4. Hồ sơ bệnh án" style="rounded=1;fillColor=#fff2cc;" vertex="1" parent="1" /><mxGeometry x="80" y="700" width="220" height="50" as_="geometry" /><mxCell id="dcd9bb55ed" style="edgeStyle=orthogonalEdgeStyle;" edge="1" source="e020bd8a3a" target="c243c6ba81" parent="1" /><mxGeometry relative="1" as_="geometry" /><mxCell id="fc2079f2a6" value="4.1 Xem hồ sơ bệnh án (BN, BS)" style="rounded=1;fillColor=#e1d5e7;" vertex="1" parent="1" /><mxGeometry x="300" y="700" width="300" height="40" as_="geometry" /><mxCell id="033325c9e4" style="edgeStyle=orthogonalEdgeStyle;" edge="1" source="c243c6ba81" target="fc2079f2a6" parent="1" /><mxGeometry relative="1" as_="geometry" /><mxCell id="873fb6edfa" value="4.2 Xem kết quả xét nghiệm (BN, BS)" style="rounded=1;fillColor=#e1d5e7;" vertex="1" parent="1" /><mxGeometry x="300" y="760" width="300" height="40" as_="geometry" /><mxCell id="0b3ba58e60" style="edgeStyle=orthogonalEdgeStyle;" edge="1" source="c243c6ba81" target="873fb6edfa" parent="1" /><mxGeometry relative="1" as_="geometry" /><mxCell id="af9dbdfac2" value="4.3 Xem đơn thuốc &amp; hướng dẫn (BN, BS)" style="rounded=1;fillColor=#e1d5e7;" vertex="1" parent="1" /><mxGeometry x="300" y="820" width="300" height="40" as_="geometry" /><mxCell id="936064e26b" style="edgeStyle=orthogonalEdgeStyle;" edge="1" source="c243c6ba81" target="af9dbdfac2" parent="1" /><mxGeometry relative="1" as_="geometry" /><mxCell id="7a112db183" value="4.4 Lưu lịch sử khám (BN, BS)" style="rounded=1;fillColor=#e1d5e7;" vertex="1" parent="1" /><mxGeometry x="300" y="880" width="300" height="40" as_="geometry" /><mxCell id="6f423fe6f9" style="edgeStyle=orthogonalEdgeStyle;" edge="1" source="c243c6ba81" target="7a112db183" parent="1" /><mxGeometry relative="1" as_="geometry" /><mxCell id="a842ccfaac" value="4.5 Cập nhật hồ sơ (BS)" style="rounded=1;fillColor=#e1d5e7;" vertex="1" parent="1" /><mxGeometry x="300" y="940" width="300" height="40" as_="geometry" /><mxCell id="6528c25eff" style="edgeStyle=orthogonalEdgeStyle;" edge="1" source="c243c6ba81" target="a842ccfaac" parent="1" /><mxGeometry relative="1" as_="geometry" /><mxCell id="600c0b0cc0" value="4.6 Tải kết quả xét nghiệm (BS)" style="rounded=1;fillColor=#e1d5e7;" vertex="1" parent="1" /><mxGeometry x="300" y="1000" width="300" height="40" as_="geometry" /><mxCell id="7192f5ccca" style="edgeStyle=orthogonalEdgeStyle;" edge="1" source="c243c6ba81" target="600c0b0cc0" parent="1" /><mxGeometry relative="1" as_="geometry" /><mxCell id="4790cc3f89" value="5. Tư vấn trực tuyến" style="rounded=1;fillColor=#fff2cc;" vertex="1" parent="1" /><mxGeometry x="80" y="900" width="220" height="50" as_="geometry" /><mxCell id="d182e1897d" style="edgeStyle=orthogonalEdgeStyle;" edge="1" source="e020bd8a3a" target="4790cc3f89" parent="1" /><mxGeometry relative="1" as_="geometry" /><mxCell id="6929b3a199" value="5.1 Gửi câu hỏi tư vấn (BN)" style="rounded=1;fillColor=#e1d5e7;" vertex="1" parent="1" /><mxGeometry x="300" y="900" width="300" height="40" as_="geometry" /><mxCell id="3ce3092677" style="edgeStyle=orthogonalEdgeStyle;" edge="1" source="4790cc3f89" target="6929b3a199" parent="1" /><mxGeometry relative="1" as_="geometry" /><mxCell id="8e8ecf8712" value="5.2 Chat với bác sĩ (BN, BS)" style="rounded=1;fillColor=#e1d5e7;" vertex="1" parent="1" /><mxGeometry x="300" y="960" width="300" height="40" as_="geometry" /><mxCell id="82a3faa734" style="edgeStyle=orthogonalEdgeStyle;" edge="1" source="4790cc3f89" target="8e8ecf8712" parent="1" /><mxGeometry relative="1" as_="geometry" /><mxCell id="153e079742" value="5.3 Xem lịch sử tư vấn (BN, BS)" style="rounded=1;fillColor=#e1d5e7;" vertex="1" parent="1" /><mxGeometry x="300" y="1020" width="300" height="40" as_="geometry" /><mxCell id="1f4f0c7d52" style="edgeStyle=orthogonalEdgeStyle;" edge="1" source="4790cc3f89" target="153e079742" parent="1" /><mxGeometry relative="1" as_="geometry" /><mxCell id="7cf971d359" value="5.4 Trả lời câu hỏi (BS)" style="rounded=1;fillColor=#e1d5e7;" vertex="1" parent="1" /><mxGeometry x="300" y="1080" width="300" height="40" as_="geometry" /><mxCell id="76541e43c8" style="edgeStyle=orthogonalEdgeStyle;" edge="1" source="4790cc3f89" target="7cf971d359" parent="1" /><mxGeometry relative="1" as_="geometry" /><mxCell id="83b313f490" value="6. Dịch vụ khám tại nhà" style="rounded=1;fillColor=#fff2cc;" vertex="1" parent="1" /><mxGeometry x="80" y="1100" width="220" height="50" as_="geometry" /><mxCell id="b0dea9f9df" style="edgeStyle=orthogonalEdgeStyle;" edge="1" source="e020bd8a3a" target="83b313f490" parent="1" /><mxGeometry relative="1" as_="geometry" /><mxCell id="91304ae3dc" value="6.1 Đặt yêu cầu khám (BN)" style="rounded=1;fillColor=#e1d5e7;" vertex="1" parent="1" /><mxGeometry x="300" y="1100" width="300" height="40" as_="geometry" /><mxCell id="4b6ef1101e" style="edgeStyle=orthogonalEdgeStyle;" edge="1" source="83b313f490" target="91304ae3dc" parent="1" /><mxGeometry relative="1" as_="geometry" /><mxCell id="4946a522a7" value="6.2 Chọn loại dịch vụ (BN)" style="rounded=1;fillColor=#e1d5e7;" vertex="1" parent="1" /><mxGeometry x="300" y="1160" width="300" height="40" as_="geometry" /><mxCell id="ec77a17277" style="edgeStyle=orthogonalEdgeStyle;" edge="1" source="83b313f490" target="4946a522a7" parent="1" /><mxGeometry relative="1" as_="geometry" /><mxCell id="de45f04668" value="6.3 Theo dõi trạng thái (BN)" style="rounded=1;fillColor=#e1d5e7;" vertex="1" parent="1" /><mxGeometry x="300" y="1220" width="300" height="40" as_="geometry" /><mxCell id="f3cf880254" style="edgeStyle=orthogonalEdgeStyle;" edge="1" source="83b313f490" target="de45f04668" parent="1" /><mxGeometry relative="1" as_="geometry" /><mxCell id="0b9a0f2b65" value="7. Thanh toán trực tuyến" style="rounded=1;fillColor=#fff2cc;" vertex="1" parent="1" /><mxGeometry x="80" y="1300" width="220" height="50" as_="geometry" /><mxCell id="03397277e5" style="edgeStyle=orthogonalEdgeStyle;" edge="1" source="e020bd8a3a" target="0b9a0f2b65" parent="1" /><mxGeometry relative="1" as_="geometry" /><mxCell id="659c0e7d51" value="7.1 Xem chi phí (BN)" style="rounded=1;fillColor=#e1d5e7;" vertex="1" parent="1" /><mxGeometry x="300" y="1300" width="300" height="40" as_="geometry" /><mxCell id="dd38f5802c" style="edgeStyle=orthogonalEdgeStyle;" edge="1" source="0b9a0f2b65" target="659c0e7d51" parent="1" /><mxGeometry relative="1" as_="geometry" /><mxCell id="7c17846f14" value="7.2 Thanh toán online (BN)" style="rounded=1;fillColor=#e1d5e7;" vertex="1" parent="1" /><mxGeometry x="300" y="1360" width="300" height="40" as_="geometry" /><mxCell id="23e97b71c7" style="edgeStyle=orthogonalEdgeStyle;" edge="1" source="0b9a0f2b65" target="7c17846f14" parent="1" /><mxGeometry relative="1" as_="geometry" /><mxCell id="230859b507" value="7.3 Xem lịch sử thanh toán (BN)" style="rounded=1;fillColor=#e1d5e7;" vertex="1" parent="1" /><mxGeometry x="300" y="1420" width="300" height="40" as_="geometry" /><mxCell id="06fd8d5081" style="edgeStyle=orthogonalEdgeStyle;" edge="1" source="0b9a0f2b65" target="230859b507" parent="1" /><mxGeometry relative="1" as_="geometry" /><mxCell id="804d37c05a" value="8. Mua thuốc trực tuyến" style="rounded=1;fillColor=#fff2cc;" vertex="1" parent="1" /><mxGeometry x="80" y="1500" width="220" height="50" as_="geometry" /><mxCell id="b38b4c5478" style="edgeStyle=orthogonalEdgeStyle;" edge="1" source="e020bd8a3a" target="804d37c05a" parent="1" /><mxGeometry relative="1" as_="geometry" /><mxCell id="e2ce878b5e" value="8.1 Tra cứu thuốc kê đơn (BN)" style="rounded=1;fillColor=#e1d5e7;" vertex="1" parent="1" /><mxGeometry x="300" y="1500" width="300" height="40" as_="geometry" /><mxCell id="3ae63e1f87" style="edgeStyle=orthogonalEdgeStyle;" edge="1" source="804d37c05a" target="e2ce878b5e" parent="1" /><mxGeometry relative="1" as_="geometry" /><mxCell id="89d5fb0e59" value="8.2 Đặt mua thuốc (BN)" style="rounded=1;fillColor=#e1d5e7;" vertex="1" parent="1" /><mxGeometry x="300" y="1560" width="300" height="40" as_="geometry" /><mxCell id="50e9c82bf5" style="edgeStyle=orthogonalEdgeStyle;" edge="1" source="804d37c05a" target="89d5fb0e59" parent="1" /><mxGeometry relative="1" as_="geometry" /><mxCell id="7df6a5ba3e" value="8.3 Theo dõi đơn hàng (BN)" style="rounded=1;fillColor=#e1d5e7;" vertex="1" parent="1" /><mxGeometry x="300" y="1620" width="300" height="40" as_="geometry" /><mxCell id="ee5ca4f3c7" style="edgeStyle=orthogonalEdgeStyle;" edge="1" source="804d37c05a" target="7df6a5ba3e" parent="1" /><mxGeometry relative="1" as_="geometry" /><mxCell id="4ac2b77721" value="9. Thông báo và nhắc nhở" style="rounded=1;fillColor=#fff2cc;" vertex="1" parent="1" /><mxGeometry x="80" y="1700" width="220" height="50" as_="geometry" /><mxCell id="bd654f9cc6" style="edgeStyle=orthogonalEdgeStyle;" edge="1" source="e020bd8a3a" target="4ac2b77721" parent="1" /><mxGeometry relative="1" as_="geometry" /><mxCell id="3f155a0dae" value="9.1 Nhắc lịch khám (BN, BS)" style="rounded=1;fillColor=#e1d5e7;" vertex="1" parent="1" /><mxGeometry x="300" y="1700" width="300" height="40" as_="geometry" /><mxCell id="4608e94741" style="edgeStyle=orthogonalEdgeStyle;" edge="1" source="4ac2b77721" target="3f155a0dae" parent="1" /><mxGeometry relative="1" as_="geometry" /><mxCell id="45c7dedac8" value="9.2 Nhắc giờ uống thuốc (BN)" style="rounded=1;fillColor=#e1d5e7;" vertex="1" parent="1" /><mxGeometry x="300" y="1760" width="300" height="40" as_="geometry" /><mxCell id="772af71637" style="edgeStyle=orthogonalEdgeStyle;" edge="1" source="4ac2b77721" target="45c7dedac8" parent="1" /><mxGeometry relative="1" as_="geometry" /><mxCell id="5c063dece5" value="9.3 Thông báo xét nghiệm (BN, BS)" style="rounded=1;fillColor=#e1d5e7;" vertex="1" parent="1" /><mxGeometry x="300" y="1820" width="300" height="40" as_="geometry" /><mxCell id="ccda4ba7f2" style="edgeStyle=orthogonalEdgeStyle;" edge="1" source="4ac2b77721" target="5c063dece5" parent="1" /><mxGeometry relative="1" as_="geometry" /><mxCell id="1791b85c2b" value="9.4 Tin tức y tế (BN, BS)" style="rounded=1;fillColor=#e1d5e7;" vertex="1" parent="1" /><mxGeometry x="300" y="1880" width="300" height="40" as_="geometry" /><mxCell id="01fbf1e459" style="edgeStyle=orthogonalEdgeStyle;" edge="1" source="4ac2b77721" target="1791b85c2b" parent="1" /><mxGeometry relative="1" as_="geometry" /><mxCell id="4f581e525a" value="10. Tìm kiếm thông tin" style="rounded=1;fillColor=#fff2cc;" vertex="1" parent="1" /><mxGeometry x="80" y="1900" width="220" height="50" as_="geometry" /><mxCell id="739aa0edb5" style="edgeStyle=orthogonalEdgeStyle;" edge="1" source="e020bd8a3a" target="4f581e525a" parent="1" /><mxGeometry relative="1" as_="geometry" /><mxCell id="05700f576e" value="10.1 Tìm bác sĩ theo chuyên khoa (BN)" style="rounded=1;fillColor=#e1d5e7;" vertex="1" parent="1" /><mxGeometry x="300" y="1900" width="300" height="40" as_="geometry" /><mxCell id="b2dc1b088b" style="edgeStyle=orthogonalEdgeStyle;" edge="1" source="4f581e525a" target="05700f576e" parent="1" /><mxGeometry relative="1" as_="geometry" /><mxCell id="bfd321a425" value="10.2 Tìm phòng khám (BN)" style="rounded=1;fillColor=#e1d5e7;" vertex="1" parent="1" /><mxGeometry x="300" y="1960" width="300" height="40" as_="geometry" /><mxCell id="52cacc13d2" style="edgeStyle=orthogonalEdgeStyle;" edge="1" source="4f581e525a" target="bfd321a425" parent="1" /><mxGeometry relative="1" as_="geometry" /><mxCell id="eb3e5919b0" value="10.3 Tìm thuốc (BN)" style="rounded=1;fillColor=#e1d5e7;" vertex="1" parent="1" /><mxGeometry x="300" y="2020" width="300" height="40" as_="geometry" /><mxCell id="82199815f6" style="edgeStyle=orthogonalEdgeStyle;" edge="1" source="4f581e525a" target="eb3e5919b0" parent="1" /><mxGeometry relative="1" as_="geometry" /><mxCell id="f9563c2440" value="10.4 Tìm lịch sử khám (BN, BS)" style="rounded=1;fillColor=#e1d5e7;" vertex="1" parent="1" /><mxGeometry x="300" y="2080" width="300" height="40" as_="geometry" /><mxCell id="0de8f7983c" style="edgeStyle=orthogonalEdgeStyle;" edge="1" source="4f581e525a" target="f9563c2440" parent="1" /><mxGeometry relative="1" as_="geometry" /><mxCell id="11ec31382f" value="10.5 Tìm bệnh nhân theo mã (BS)" style="rounded=1;fillColor=#e1d5e7;" vertex="1" parent="1" /><mxGeometry x="300" y="2140" width="300" height="40" as_="geometry" /><mxCell id="75ef47ac15" style="edgeStyle=orthogonalEdgeStyle;" edge="1" source="4f581e525a" target="11ec31382f" parent="1" /><mxGeometry relative="1" as_="geometry" /><mxCell id="3cfa6134bc" value="11. Đánh giá và phản hồi" style="rounded=1;fillColor=#fff2cc;" vertex="1" parent="1" /><mxGeometry x="80" y="2100" width="220" height="50" as_="geometry" /><mxCell id="2a410f57ce" style="edgeStyle=orthogonalEdgeStyle;" edge="1" source="e020bd8a3a" target="3cfa6134bc" parent="1" /><mxGeometry relative="1" as_="geometry" /><mxCell id="cfe663fffb" value="11.1 Đánh giá dịch vụ (BN)" style="rounded=1;fillColor=#e1d5e7;" vertex="1" parent="1" /><mxGeometry x="300" y="2100" width="300" height="40" as_="geometry" /><mxCell id="975be1489c" style="edgeStyle=orthogonalEdgeStyle;" edge="1" source="3cfa6134bc" target="cfe663fffb" parent="1" /><mxGeometry relative="1" as_="geometry" /><mxCell id="7b43037483" value="11.2 Đánh giá bác sĩ (BN)" style="rounded=1;fillColor=#e1d5e7;" vertex="1" parent="1" /><mxGeometry x="300" y="2160" width="300" height="40" as_="geometry" /><mxCell id="0ee1c291a3" style="edgeStyle=orthogonalEdgeStyle;" edge="1" source="3cfa6134bc" target="7b43037483" parent="1" /><mxGeometry relative="1" as_="geometry" /><mxCell id="d7543edb81" value="11.3 Góp ý ứng dụng (BN)" style="rounded=1;fillColor=#e1d5e7;" vertex="1" parent="1" /><mxGeometry x="300" y="2220" width="300" height="40" as_="geometry" /><mxCell id="9c11dc5c8e" style="edgeStyle=orthogonalEdgeStyle;" edge="1" source="3cfa6134bc" target="d7543edb81" parent="1" /><mxGeometry relative="1" as_="geometry" /><mxCell id="3de665939b" value="11.4 Xem đánh giá (BS)" style="rounded=1;fillColor=#e1d5e7;" vertex="1" parent="1" /><mxGeometry x="300" y="2280" width="300" height="40" as_="geometry" /><mxCell id="9eb75aa555" style="edgeStyle=orthogonalEdgeStyle;" edge="1" source="3cfa6134bc" target="3de665939b" parent="1" /><mxGeometry relative="1" as_="geometry" /><mxCell id="0e045ff0be" value="12. Hỗ trợ khách hàng" style="rounded=1;fillColor=#fff2cc;" vertex="1" parent="1" /><mxGeometry x="80" y="2300" width="220" height="50" as_="geometry" /><mxCell id="147d1c0845" style="edgeStyle=orthogonalEdgeStyle;" edge="1" source="e020bd8a3a" target="0e045ff0be" parent="1" /><mxGeometry relative="1" as_="geometry" /><mxCell id="da0532363b" value="12.1 Liên hệ tổng đài (BN, BS)" style="rounded=1;fillColor=#e1d5e7;" vertex="1" parent="1" /><mxGeometry x="300" y="2300" width="300" height="40" as_="geometry" /><mxCell id="8c42acb082" style="edgeStyle=orthogonalEdgeStyle;" edge="1" source="0e045ff0be" target="da0532363b" parent="1" /><mxGeometry relative="1" as_="geometry" /><mxCell id="d96675a228" value="12.2 Gửi yêu cầu hỗ trợ (BN, BS)" style="rounded=1;fillColor=#e1d5e7;" vertex="1" parent="1" /><mxGeometry x="300" y="2360" width="300" height="40" as_="geometry" /><mxCell id="bc3a22cfd1" style="edgeStyle=orthogonalEdgeStyle;" edge="1" source="0e045ff0be" target="d96675a228" parent="1" /><mxGeometry relative="1" as_="geometry" /><mxCell id="3ea889220f" value="12.3 Xem FAQ (BN, BS)" style="rounded=1;fillColor=#e1d5e7;" vertex="1" parent="1" /><mxGeometry x="300" y="2420" width="300" height="40" as_="geometry" /><mxCell id="f0a05a9e07" style="edgeStyle=orthogonalEdgeStyle;" edge="1" source="0e045ff0be" target="3ea889220f" parent="1" /><mxGeometry relative="1" as_="geometry" /><mxCell id="f272060c30" value="13. Cài đặt ứng dụng" style="rounded=1;fillColor=#fff2cc;" vertex="1" parent="1" /><mxGeometry x="80" y="2500" width="220" height="50" as_="geometry" /><mxCell id="2416d21cda" style="edgeStyle=orthogonalEdgeStyle;" edge="1" source="e020bd8a3a" target="f272060c30" parent="1" /><mxGeometry relative="1" as_="geometry" /><mxCell id="11233b0f60" value="13.1 Tùy chỉnh thông báo (BN, BS)" style="rounded=1;fillColor=#e1d5e7;" vertex="1" parent="1" /><mxGeometry x="300" y="2500" width="300" height="40" as_="geometry" /><mxCell id="44074a850b" style="edgeStyle=orthogonalEdgeStyle;" edge="1" source="f272060c30" target="11233b0f60" parent="1" /><mxGeometry relative="1" as_="geometry" /><mxCell id="a922dc5e50" value="13.2 Cập nhật phiên bản (BN, BS)" style="rounded=1;fillColor=#e1d5e7;" vertex="1" parent="1" /><mxGeometry x="300" y="2560" width="300" height="40" as_="geometry" /><mxCell id="7c7780f093" style="edgeStyle=orthogonalEdgeStyle;" edge="1" source="f272060c30" target="a922dc5e50" parent="1" /><mxGeometry relative="1" as_="geometry" /><mxCell id="9cfef17dcc" value="13.3 Quyền riêng tư &amp; bảo mật (BN, BS)" style="rounded=1;fillColor=#e1d5e7;" vertex="1" parent="1" /><mxGeometry x="300" y="2620" width="300" height="40" as_="geometry" /><mxCell id="3c1e1340e5" style="edgeStyle=orthogonalEdgeStyle;" edge="1" source="f272060c30" target="9cfef17dcc" parent="1" /><mxGeometry relative="1" as_="geometry" /><mxCell id="c9fad59ee0" value="13.4 Đổi ngôn ngữ (BN, BS)" style="rounded=1;fillColor=#e1d5e7;" vertex="1" parent="1" /><mxGeometry x="300" y="2680" width="300" height="40" as_="geometry" /><mxCell id="315ce21dc1" style="edgeStyle=orthogonalEdgeStyle;" edge="1" source="f272060c30" target="c9fad59ee0" parent="1" /><mxGeometry relative="1" as_="geometry" /><mxCell id="b2b3db1955" value="14. Đặt lịch tiêm chủng" style="rounded=1;fillColor=#fff2cc;" vertex="1" parent="1" /><mxGeometry x="80" y="2700" width="220" height="50" as_="geometry" /><mxCell id="03db74b1fa" style="edgeStyle=orthogonalEdgeStyle;" edge="1" source="e020bd8a3a" target="b2b3db1955" parent="1" /><mxGeometry relative="1" as_="geometry" /><mxCell id="0eed590f14" value="14.1 Chọn loại vắc-xin (BN)" style="rounded=1;fillColor=#e1d5e7;" vertex="1" parent="1" /><mxGeometry x="300" y="2700" width="300" height="40" as_="geometry" /><mxCell id="4a469d989a" style="edgeStyle=orthogonalEdgeStyle;" edge="1" source="b2b3db1955" target="0eed590f14" parent="1" /><mxGeometry relative="1" as_="geometry" /><mxCell id="d106b4ba5d" value="14.2 Chọn thời gian &amp; địa điểm (BN)" style="rounded=1;fillColor=#e1d5e7;" vertex="1" parent="1" /><mxGeometry x="300" y="2760" width="300" height="40" as_="geometry" /><mxCell id="596673c07e" style="edgeStyle=orthogonalEdgeStyle;" edge="1" source="b2b3db1955" target="d106b4ba5d" parent="1" /><mxGeometry relative="1" as_="geometry" /><mxCell id="2ae045f0f5" value="14.3 Nhận xác nhận (BN)" style="rounded=1;fillColor=#e1d5e7;" vertex="1" parent="1" /><mxGeometry x="300" y="2820" width="300" height="40" as_="geometry" /><mxCell id="d56fc8bbef" style="edgeStyle=orthogonalEdgeStyle;" edge="1" source="b2b3db1955" target="2ae045f0f5" parent="1" /><mxGeometry relative="1" as_="geometry" /><mxCell id="28d3198e31" value="15. Gọi cấp cứu" style="rounded=1;fillColor=#fff2cc;" vertex="1" parent="1" /><mxGeometry x="80" y="2900" width="220" height="50" as_="geometry" /><mxCell id="ec385890fe" style="edgeStyle=orthogonalEdgeStyle;" edge="1" source="e020bd8a3a" target="28d3198e31" parent="1" /><mxGeometry relative="1" as_="geometry" /><mxCell id="e1ffded017" value="15.1 Gọi bệnh viện gần nhất (BN)" style="rounded=1;fillColor=#e1d5e7;" vertex="1" parent="1" /><mxGeometry x="300" y="2900" width="300" height="40" as_="geometry" /><mxCell id="4d5d6f02fa" style="edgeStyle=orthogonalEdgeStyle;" edge="1" source="28d3198e31" target="e1ffded017" parent="1" /><mxGeometry relative="1" as_="geometry" /><mxCell id="ae3b5314a7" value="15.2 Gọi 115 (BN)" style="rounded=1;fillColor=#e1d5e7;" vertex="1" parent="1" /><mxGeometry x="300" y="2960" width="300" height="40" as_="geometry" /><mxCell id="c300cd6d6f" style="edgeStyle=orthogonalEdgeStyle;" edge="1" source="28d3198e31" target="ae3b5314a7" parent="1" /><mxGeometry relative="1" as_="geometry" /><mxCell id="e0ac3ef743" value="16. ChatBot tư vấn" style="rounded=1;fillColor=#fff2cc;" vertex="1" parent="1" /><mxGeometry x="80" y="3100" width="220" height="50" as_="geometry" /><mxCell id="b0d9515ef4" style="edgeStyle=orthogonalEdgeStyle;" edge="1" source="e020bd8a3a" target="e0ac3ef743" parent="1" /><mxGeometry relative="1" as_="geometry" /><mxCell id="8afe5ddd79" value="16.1 Trả lời câu hỏi y tế cơ bản (BN)" style="rounded=1;fillColor=#e1d5e7;" vertex="1" parent="1" /><mxGeometry x="300" y="3100" width="300" height="40" as_="geometry" /><mxCell id="296930dfd6" style="edgeStyle=orthogonalEdgeStyle;" edge="1" source="e0ac3ef743" target="8afe5ddd79" parent="1" /><mxGeometry relative="1" as_="geometry" /><mxCell id="2593284eda" value="16.2 Hướng dẫn sử dụng (BN)" style="rounded=1;fillColor=#e1d5e7;" vertex="1" parent="1" /><mxGeometry x="300" y="3160" width="300" height="40" as_="geometry" /><mxCell id="b67ec39c6c" style="edgeStyle=orthogonalEdgeStyle;" edge="1" source="e0ac3ef743" target="2593284eda" parent="1" /><mxGeometry relative="1" as_="geometry" /><mxCell id="21d56d6183" value="17. Quản lý đơn thuốc" style="rounded=1;fillColor=#fff2cc;" vertex="1" parent="1" /><mxGeometry x="80" y="3300" width="220" height="50" as_="geometry" /><mxCell id="a4e33b9fc6" style="edgeStyle=orthogonalEdgeStyle;" edge="1" source="e020bd8a3a" target="21d56d6183" parent="1" /><mxGeometry relative="1" as_="geometry" /><mxCell id="d2d83963e8" value="17.1 Tạo đơn thuốc (BS)" style="rounded=1;fillColor=#e1d5e7;" vertex="1" parent="1" /><mxGeometry x="300" y="3300" width="300" height="40" as_="geometry" /><mxCell id="f008ac5b94" style="edgeStyle=orthogonalEdgeStyle;" edge="1" source="21d56d6183" target="d2d83963e8" parent="1" /><mxGeometry relative="1" as_="geometry" /><mxCell id="985d511998" value="17.2 Chỉnh sửa / hủy đơn (BS)" style="rounded=1;fillColor=#e1d5e7;" vertex="1" parent="1" /><mxGeometry x="300" y="3360" width="300" height="40" as_="geometry" /><mxCell id="5e419a392c" style="edgeStyle=orthogonalEdgeStyle;" edge="1" source="21d56d6183" target="985d511998" parent="1" /><mxGeometry relative="1" as_="geometry" /><mxCell id="6caca0d4f3" value="17.3 Xem danh sách đơn (BS)" style="rounded=1;fillColor=#e1d5e7;" vertex="1" parent="1" /><mxGeometry x="300" y="3420" width="300" height="40" as_="geometry" /><mxCell id="40a4ba880d" style="edgeStyle=orthogonalEdgeStyle;" edge="1" source="21d56d6183" target="6caca0d4f3" parent="1" /><mxGeometry relative="1" as_="geometry" /><mxCell id="99bd5f4cce" value="18. Quản lý lịch làm việc" style="rounded=1;fillColor=#fff2cc;" vertex="1" parent="1" /><mxGeometry x="80" y="3500" width="220" height="50" as_="geometry" /><mxCell id="6b5e86c418" style="edgeStyle=orthogonalEdgeStyle;" edge="1" source="e020bd8a3a" target="99bd5f4cce" parent="1" /><mxGeometry relative="1" as_="geometry" /><mxCell id="3ceca2eee5" value="18.1 Thiết lập lịch (BS)" style="rounded=1;fillColor=#e1d5e7;" vertex="1" parent="1" /><mxGeometry x="300" y="3500" width="300" height="40" as_="geometry" /><mxCell id="e1d2139478" style="edgeStyle=orthogonalEdgeStyle;" edge="1" source="99bd5f4cce" target="3ceca2eee5" parent="1" /><mxGeometry relative="1" as_="geometry" /><mxCell id="9deab50ac9" value="18.2 Chỉnh sửa lịch (BS)" style="rounded=1;fillColor=#e1d5e7;" vertex="1" parent="1" /><mxGeometry x="300" y="3560" width="300" height="40" as_="geometry" /><mxCell id="6c0ec1070f" style="edgeStyle=orthogonalEdgeStyle;" edge="1" source="99bd5f4cce" target="9deab50ac9" parent="1" /><mxGeometry relative="1" as_="geometry" /><mxCell id="d115febe5f" value="18.3 Nhận thông báo lịch (BS)" style="rounded=1;fillColor=#e1d5e7;" vertex="1" parent="1" /><mxGeometry x="300" y="3620" width="300" height="40" as_="geometry" /><mxCell id="1536ea1e1e" style="edgeStyle=orthogonalEdgeStyle;" edge="1" source="99bd5f4cce" target="d115febe5f" parent="1" /><mxGeometry relative="1" as_="geometry" /></root></mxGraphModel></diagram></mxfile>